<svg fill="none" height="256" viewBox="0 0 256 256" width="256" xmlns="http://www.w3.org/2000/svg" xmlns:xlink="http://www.w3.org/1999/xlink"><filter id="a" color-interpolation-filters="sRGB" filterUnits="userSpaceOnUse" height="77.6968" width="77.6968" x="156.609" y="147.052"><feFlood flood-opacity="0" result="BackgroundImageFix"/><feBlend in="SourceGraphic" in2="BackgroundImageFix" mode="normal" result="shape"/><feGaussianBlur result="effect1_foregroundBlur_12_41" stdDeviation="11"/></filter><filter id="b" color-interpolation-filters="sRGB" filterUnits="userSpaceOnUse" height="69.1147" width="69.1147" x="30.0547" y="32.0621"><feFlood flood-opacity="0" result="BackgroundImageFix"/><feBlend in="SourceGraphic" in2="BackgroundImageFix" mode="normal" result="shape"/><feGaussianBlur result="effect1_foregroundBlur_12_41" stdDeviation="9.5"/></filter><radialGradient id="c" cx="0" cy="0" gradientTransform="matrix(-206.92215359 -101.82280825 144.15147568 -292.94157472 242.057 149.347)" gradientUnits="userSpaceOnUse" r="1"><stop offset=".432292" stop-color="#e192e0"/><stop offset="1" stop-color="#32cbe1"/></radialGradient><linearGradient id="d" gradientUnits="userSpaceOnUse" x1="258.887" x2="185.516" y1="153.451" y2="170.854"><stop offset="0" stop-color="#fff" stop-opacity=".64"/><stop offset="1" stop-color="#d080d6"/></linearGradient><linearGradient id="e" gradientUnits="userSpaceOnUse" x1="92.0663" x2="24.3181" y1="36.6571" y2="52.7265"><stop offset="0" stop-color="#3cbbd0"/><stop offset="1" stop-color="#fff"/></linearGradient><linearGradient id="f" gradientUnits="userSpaceOnUse" x1="262.372" x2="189.53" y1="169.683" y2="195.783"><stop offset="0" stop-color="#e192e0"/><stop offset="1" stop-color="#9f4cb8"/></linearGradient><linearGradient id="g" gradientUnits="userSpaceOnUse" x1="85.6657" x2="15.8151" y1="49.9611" y2="66.5292"><stop offset="0" stop-color="#3cbbd0"/><stop offset="1" stop-color="#28dbf1"/></linearGradient><rect fill="#1d2957" height="256" rx="32" width="256"/><path d="m37.3467 151.557c-13.4464-50.183 16.3341-101.7639 66.5163-115.2103 50.183-13.4463 101.764 16.3342 115.21 66.5163 13.447 50.183-16.334 101.764-66.516 115.21-50.183 13.447-101.764-16.334-115.2103-66.516zm170.4803-45.68c-11.782-43.9714-56.979-70.0658-100.95-58.2838-43.9714 11.7821-70.0659 56.9788-58.2838 100.9498 11.782 43.972 56.9788 70.066 100.9498 58.284s70.066-56.979 58.284-100.95z" fill="#c4c4c4"/><path d="m37.3467 151.557c-13.4464-50.183 16.3341-101.7639 66.5163-115.2103 50.183-13.4463 101.764 16.3342 115.21 66.5163 13.447 50.183-16.334 101.764-66.516 115.21-50.183 13.447-101.764-16.334-115.2103-66.516zm170.4803-45.68c-11.782-43.9714-56.979-70.0658-100.95-58.2838-43.9714 11.7821-70.0659 56.9788-58.2838 100.9498 11.782 43.972 56.9788 70.066 100.9498 58.284s70.066-56.979 58.284-100.95z" fill="url(#c)"/><g filter="url(#a)"><path d="m212.306 169.052h33.6968v33.6968h-33.6968z" fill="#c4c4c4" transform="matrix(0 1 -1 0 381.358 -43.254)"/><path d="m212.306 169.052h33.6968v33.6968h-33.6968z" fill="url(#d)" transform="matrix(0 1 -1 0 381.358 -43.254)"/></g><g filter="url(#b)"><path d="m49.0547 51.0621h31.1148v31.1148h-31.1148z" fill="url(#e)"/></g><path d="m218.579 181.123h22.7464v22.7464h-22.7464z" fill="#c4c4c4" transform="matrix(-.8660254 .5 -.5 -.8660254 498.435467 228.690619)"/><path d="m218.579 181.123h22.7464v22.7464h-22.7464z" fill="url(#f)" transform="matrix(-.8660254 .5 -.5 -.8660254 498.435467 228.690619)"/><path d="m41.3193 64.8131h32.0804v32.0804h-32.0804z" fill="url(#g)"/></svg>