<svg fill="none" height="45" viewBox="0 0 45 45" width="45" xmlns="http://www.w3.org/2000/svg" xmlns:xlink="http://www.w3.org/1999/xlink"><clipPath id="a"><rect height="45" rx="22.5" width="45"/></clipPath><g clip-path="url(#a)"><rect fill="#fff" height="45" rx="22.5" width="45"/><path d="m-8 0h61.3333v46h-61.3333z" fill="#41479b"/><path d="m53.3333 40.0105-22.6805-17.0105 22.6805-17.01041v-5.98959h-7.9861l-22.6805 17.0105-22.6805934-17.0105h-7.9861066v5.98958l22.6806 17.01042-22.6806 17.0105v5.9895h7.9862181l22.6804819-17.0104 22.6804 17.0104h7.9862z" fill="#fff"/><g clip-rule="evenodd" fill-rule="evenodd"><path d="m-7.99991 0-.00009.00011951v2.39597049l27.4722 20.60411-27.4722 20.6042v2.3956h3.19476l27.47184-20.6039 27.4718 20.6039h3.1949v-2.3955l-27.4723-20.6043 27.4723-20.60421v-2.39569963l-.0002-.00029037h-3.194l-27.4725 20.6044-27.47249-20.6044z" fill="#dc251c"/><path d="m15 15.3333v-15.3333h15.3333v15.3333h23v15.3334h-23v15.3333h-15.3333v-15.3333h-23v-15.3334z" fill="#fff"/><path d="m18.8333 19.1667v-19.1667h7.6667v19.1667h26.8333v7.6666h-26.8333v19.1667h-7.6667v-19.1667h-26.8333v-7.6666z" fill="#dc251c"/></g></g></svg>