<svg fill="none" height="65" viewBox="0 0 65 65" width="65" xmlns="http://www.w3.org/2000/svg"><rect fill="#af6cb7" fill-opacity=".17" height="65" rx="32.5" width="65"/><path d="m18.9666 18.9666 1.16 3.8666m0 0 4.64 15.4667h21.2666v-11.6c0-2.1355-1.7311-3.8667-3.8666-3.8667zm9.4733 7.7334h9.6667m2.9 15.4666c-1.0678 0-1.9334-.8656-1.9334-1.9333 0-1.0678.8656-1.9333 1.9334-1.9333 1.0677 0 1.9333.8655 1.9333 1.9333 0 1.0677-.8656 1.9333-1.9333 1.9333zm-15.4667-1.9333c0-1.0678.8656-1.9333 1.9333-1.9333 1.0678 0 1.9334.8655 1.9334 1.9333 0 1.0677-.8656 1.9333-1.9334 1.9333-1.0677 0-1.9333-.8656-1.9333-1.9333z" stroke="#c777d0" stroke-width="2"/></svg>