<svg fill="none" height="65" viewBox="0 0 65 65" width="65" xmlns="http://www.w3.org/2000/svg"><rect fill="#af6cb7" fill-opacity=".17" height="65" rx="32.5" width="65"/><path clip-rule="evenodd" d="m32.4998 19.6428c-3.8976 0-7.0572 3.1596-7.0572 7.0572 0 3.1385 2.0487 5.7985 4.8817 6.7156-2.2208.3069-4.1318 1.1209-5.5843 2.5523-1.9106 1.883-2.874 4.6827-2.874 8.3255 0 .5342.433.9672.9672.9672s.9672-.433.9672-.9672c0-3.3171.8732-5.5441 2.2975-6.9477 1.4271-1.4065 3.5615-2.1384 6.4018-2.1384s4.9748.7319 6.402 2.1384c1.4243 1.4036 2.2975 3.6306 2.2975 6.9477 0 .5341.433.9672.9672.9672s.9672-.433.9672-.9672c.0001-3.6428-.9634-6.4425-2.8741-8.3255-1.4525-1.4314-3.3635-2.2453-5.5843-2.5523 2.8331-.9171 4.8818-3.5771 4.8818-6.7156 0-3.8976-3.1596-7.0572-7.0572-7.0572zm-5.1228 7.0572c0-2.8292 2.2936-5.1228 5.1228-5.1228s5.1228 2.2936 5.1228 5.1228c0 2.8293-2.2936 5.1228-5.1228 5.1228s-5.1228-2.2935-5.1228-5.1228z" fill="#c777d0" fill-rule="evenodd"/></svg>