<svg fill="none" height="30" viewBox="0 0 30 30" width="30" xmlns="http://www.w3.org/2000/svg"><path clip-rule="evenodd" d="m6.25 2.5h2.5c.69036 0 1.25.55964 1.25 1.25 0 .64104-.48255 1.16938-1.10422 1.24159l-.14578.00841h-2.5c-.64104 0-1.16938.48255-1.24159 1.10422l-.00841.14578v17.5c0 .641.48255 1.1694 1.10422 1.2416l.14578.0084h17.5c.641 0 1.1694-.4826 1.2416-1.1042l.0084-.1458v-2.5c0-.6904.5596-1.25 1.25-1.25.641 0 1.1694.4826 1.2416 1.1042l.0084.1458v2.5c0 1.9971-1.5611 3.6296-3.5297 3.7436l-.2203.0064h-17.5c-1.9971 0-3.62958-1.5611-3.74363-3.5297l-.00637-.2203v-17.5c0-1.9971 1.56115-3.62958 3.52966-3.74363l.22034-.00637h2.5zm20 0 .1013.00375.1496.02155.1393.03687.1388.05492.1219.0654.12.08349.113.10014.1207.13975.0896.13905.0387.07621.0422.10181.0301.09457.0362.18487.0086.14762v7.5c0 .6904-.5596 1.25-1.25 1.25s-1.25-.5596-1.25-1.25v-4.4825l-7.8661 7.8664c-.4506.4506-1.1597.4853-1.65.104l-.1178-.104c-.4506-.4506-.4853-1.1597-.104-1.65l.104-.1178 7.8639-7.8661h-4.48c-.6904 0-1.25-.55964-1.25-1.25s.5596-1.25 1.25-1.25z" fill="#fff" fill-rule="evenodd"/></svg>