<svg fill="none" height="45" viewBox="0 0 45 45" width="45" xmlns="http://www.w3.org/2000/svg" xmlns:xlink="http://www.w3.org/1999/xlink"><clipPath id="a"><rect height="45" rx="22.5" width="45"/></clipPath><g clip-path="url(#a)"><rect fill="#fff" height="45" rx="22.5" width="45"/><path d="m0 0h62.6667v47h-62.6667z" fill="#e31d1c" transform="translate(-3 -1)"/><g fill="#ffd018"><path d="m9.79076 11.157 2.30214 4.6647 5.1478.748-3.725 3.6309.8794 5.127-4.60434-2.4206-4.60431 2.4206.87934-5.127-3.72497-3.6309 5.14778-.748z"/><path d="m20.0784 6.47729 2.9164 2.11884-1.114 3.42837h-3.6048l-1.1139-3.42837z"/><path d="m29.4018 12.4857.5639 3.5604-3.2119 1.6366-2.549-2.549 1.6366-3.2119z"/><path d="m20.0788 31.0081-2.9163-2.1189 1.1139-3.4283h3.6048l1.1139 3.4283z"/><path d="m29.4012 24.9992-3.5604.5639-1.6365-3.2119 2.549-2.549 3.2118 1.6366z"/></g></g></svg>