<svg fill="none" height="24" viewBox="0 0 24 24" width="24" xmlns="http://www.w3.org/2000/svg"><path clip-rule="evenodd" d="m21 16c.5128 0 .9355.386.9933.8834l.0067.1166v2c0 1.5977-1.2489 2.9037-2.8237 2.9949l-.1763.0051h-14c-1.59768 0-2.90366-1.2489-2.99491-2.8237l-.00509-.1763v-2c0-.5523.44772-1 1-1 .51284 0 .93551.386.99327.8834l.00673.1166v2c0 .5128.38604.9355.88338.9933l.11662.0067h14c.5128 0 .9355-.386.9933-.8834l.0067-.1166v-2c0-.5523.4477-1 1-1zm-9-14c.5523 0 1 .44772 1 1v9.585l1.2929-1.2921c.3605-.3605.9277-.3882 1.32-.0832l.0942.0832c.3605.3605.3882.9277.0832 1.32l-.0832.0942-3 3-.044.0414-.0678.0552-.1112.0716-.1128.0535-.1053.0354-.1485.029-.1175.0068-.0752-.0028-.1255-.0174-.1114-.0295-.1111-.044-.0975-.0523-.0961-.0668c-.0317-.0249-.0618-.0516-.0903-.0801l-3.00001-3c-.39052-.3905-.39052-1.0237 0-1.4142.36049-.3605.92772-.3882 1.32001-.0832l.09421.0832 1.29289 1.2921v-9.585c0-.55228.4477-1 1-1z" fill="#c777d0" fill-rule="evenodd"/></svg>