<svg fill="none" height="314" viewBox="0 0 323 314" width="323" xmlns="http://www.w3.org/2000/svg" xmlns:xlink="http://www.w3.org/1999/xlink"><filter id="a" color-interpolation-filters="sRGB" filterUnits="userSpaceOnUse" height="60.4062" width="30.9138" x="183.086" y="115"><feFlood flood-opacity="0" result="BackgroundImageFix"/><feBlend in="SourceGraphic" in2="BackgroundImageFix" mode="normal" result="shape"/><feGaussianBlur result="effect1_foregroundBlur_75_150" stdDeviation="1.5"/></filter><filter id="b" color-interpolation-filters="sRGB" filterUnits="userSpaceOnUse" height="17.9209" width="32.3896" x="259" y="177"><feFlood flood-opacity="0" result="BackgroundImageFix"/><feBlend in="SourceGraphic" in2="BackgroundImageFix" mode="normal" result="shape"/><feGaussianBlur result="effect1_foregroundBlur_75_150" stdDeviation="1.5"/></filter><filter id="c" color-interpolation-filters="sRGB" filterUnits="userSpaceOnUse" height="18.9082" width="32.4189" x="261.581" y="224"><feFlood flood-opacity="0" result="BackgroundImageFix"/><feBlend in="SourceGraphic" in2="BackgroundImageFix" mode="normal" result="shape"/><feGaussianBlur result="effect1_foregroundBlur_75_150" stdDeviation="1.5"/></filter><filter id="d" color-interpolation-filters="sRGB" filterUnits="userSpaceOnUse" height="38.0933" width="9.99561" x="232.004" y="241"><feFlood flood-opacity="0" result="BackgroundImageFix"/><feBlend in="SourceGraphic" in2="BackgroundImageFix" mode="normal" result="shape"/><feGaussianBlur result="effect1_foregroundBlur_75_150" stdDeviation="1.5"/></filter><filter id="e" color-interpolation-filters="sRGB" filterUnits="userSpaceOnUse" height="20.9629" width="56.2695" x="144" y="215"><feFlood flood-opacity="0" result="BackgroundImageFix"/><feBlend in="SourceGraphic" in2="BackgroundImageFix" mode="normal" result="shape"/><feGaussianBlur result="effect1_foregroundBlur_75_150" stdDeviation="1.5"/></filter><filter id="f" color-interpolation-filters="sRGB" filterUnits="userSpaceOnUse" height="16.9702" width="28.2424" x="63.7576" y="218"><feFlood flood-opacity="0" result="BackgroundImageFix"/><feBlend in="SourceGraphic" in2="BackgroundImageFix" mode="normal" result="shape"/><feGaussianBlur result="effect1_foregroundBlur_75_150" stdDeviation="3"/></filter><filter id="g" color-interpolation-filters="sRGB" filterUnits="userSpaceOnUse" height="24.8574" width="32.5144" x="16.4856" y="185"><feFlood flood-opacity="0" result="BackgroundImageFix"/><feBlend in="SourceGraphic" in2="BackgroundImageFix" mode="normal" result="shape"/><feGaussianBlur result="effect1_foregroundBlur_75_150" stdDeviation="3"/></filter><filter id="h" color-interpolation-filters="sRGB" filterUnits="userSpaceOnUse" height="30.3164" width="18.9487" x="56" y="179"><feFlood flood-opacity="0" result="BackgroundImageFix"/><feBlend in="SourceGraphic" in2="BackgroundImageFix" mode="normal" result="shape"/><feGaussianBlur result="effect1_foregroundBlur_75_150" stdDeviation="3"/></filter><filter id="i" color-interpolation-filters="sRGB" filterUnits="userSpaceOnUse" height="17.9546" width="28.2983" x="78" y="62"><feFlood flood-opacity="0" result="BackgroundImageFix"/><feBlend in="SourceGraphic" in2="BackgroundImageFix" mode="normal" result="shape"/><feGaussianBlur result="effect1_foregroundBlur_75_150" stdDeviation="3"/></filter><filter id="j" color-interpolation-filters="sRGB" filterUnits="userSpaceOnUse" height="30.4858" width="22.8743" x="90.1257" y="18"><feFlood flood-opacity="0" result="BackgroundImageFix"/><feBlend in="SourceGraphic" in2="BackgroundImageFix" mode="normal" result="shape"/><feGaussianBlur result="effect1_foregroundBlur_75_150" stdDeviation="3"/></filter><filter id="k" color-interpolation-filters="sRGB" filterUnits="userSpaceOnUse" height="28.124" width="14.9922" x="174.008" y="46.876"><feFlood flood-opacity="0" result="BackgroundImageFix"/><feBlend in="SourceGraphic" in2="BackgroundImageFix" mode="normal" result="shape"/><feGaussianBlur result="effect1_foregroundBlur_75_150" stdDeviation="3"/></filter><filter id="l" color-interpolation-filters="sRGB" filterUnits="userSpaceOnUse" height="25.8945" width="38.4473" x="124.553" y="62"><feFlood flood-opacity="0" result="BackgroundImageFix"/><feBlend in="SourceGraphic" in2="BackgroundImageFix" mode="normal" result="shape"/><feGaussianBlur result="effect1_foregroundBlur_75_150" stdDeviation="3"/></filter><filter id="m" color-interpolation-filters="sRGB" filterUnits="userSpaceOnUse" height="23.7632" width="25.646" x="20" y="221"><feFlood flood-opacity="0" result="BackgroundImageFix"/><feBlend in="SourceGraphic" in2="BackgroundImageFix" mode="normal" result="shape"/><feGaussianBlur result="effect1_foregroundBlur_75_150" stdDeviation="3"/></filter><rect fill="#c777d0" height="61" rx="30.5" width="61" x="201" y="177"/><path clip-rule="evenodd" d="m232 194.225c-4.294 0-7.775 3.481-7.775 7.775 0 2.904 1.592 5.436 3.951 6.771-1.749.449-3.291 1.251-4.536 2.479-2.096 2.065-3.115 5.102-3.115 8.95 0 .815.661 1.475 1.475 1.475.815 0 1.475-.66 1.475-1.475 0-3.352.881-5.515 2.235-6.849 1.359-1.339 3.428-2.076 6.29-2.076s4.931.737 6.29 2.076c1.354 1.334 2.235 3.497 2.235 6.849 0 .815.66 1.475 1.475 1.475s1.475-.66 1.475-1.475c0-3.848-1.019-6.885-3.115-8.951-1.245-1.227-2.787-2.029-4.536-2.478 2.359-1.335 3.951-3.867 3.951-6.771 0-4.294-3.481-7.775-7.775-7.775zm-4.825 7.775c0-2.665 2.16-4.825 4.825-4.825s4.825 2.16 4.825 4.825-2.16 4.825-4.825 4.825-4.825-2.16-4.825-4.825z" fill="#fff" fill-rule="evenodd"/><rect fill="#c777d0" height="51" rx="25.5" width="51" x="90" y="213"/><path clip-rule="evenodd" d="m115.918 227.401c-3.59 0-6.5 2.911-6.5 6.501 0 2.428 1.331 4.545 3.303 5.661-1.462.375-2.752 1.046-3.793 2.072-1.752 1.726-2.604 4.265-2.604 7.483 0 .681.552 1.233 1.233 1.233s1.234-.552 1.234-1.233c0-2.802.736-4.611 1.868-5.727 1.136-1.119 2.866-1.735 5.259-1.735 2.392 0 4.123.616 5.259 1.735 1.132 1.116 1.868 2.925 1.868 5.727 0 .681.553 1.233 1.234 1.233s1.233-.552 1.233-1.233c0-3.218-.852-5.757-2.604-7.483-1.041-1.026-2.331-1.697-3.793-2.072 1.972-1.116 3.303-3.233 3.303-5.661 0-3.59-2.91-6.501-6.5-6.501zm-4.034 6.501c0-2.228 1.806-4.034 4.034-4.034s4.034 1.806 4.034 4.034-1.806 4.034-4.034 4.034-4.034-1.806-4.034-4.034z" fill="#fff" fill-rule="evenodd"/><g opacity=".9"><rect fill="#c777d0" height="29" rx="14.5" width="29" x="294" y="224"/><path clip-rule="evenodd" d="m308.738 232.189c-2.042 0-3.697 1.655-3.697 3.696 0 1.381.757 2.585 1.878 3.219-.831.214-1.564.595-2.156 1.178-.996.982-1.481 2.426-1.481 4.256 0 .387.314.701.701.701.388 0 .702-.314.702-.701 0-1.594.419-2.622 1.062-3.257.646-.636 1.63-.986 2.99-.986 1.361 0 2.345.35 2.991.986.643.635 1.062 1.663 1.062 3.257 0 .387.314.701.702.701.387 0 .701-.314.701-.701 0-1.83-.484-3.274-1.481-4.256-.592-.583-1.325-.964-2.156-1.178 1.121-.634 1.878-1.838 1.878-3.219 0-2.041-1.655-3.696-3.696-3.696zm-2.294 3.696c0-1.267 1.027-2.294 2.294-2.294 1.266 0 2.293 1.027 2.293 2.294s-1.027 2.294-2.293 2.294c-1.267 0-2.294-1.027-2.294-2.294z" fill="#fff" fill-rule="evenodd"/></g><g opacity=".9"><rect fill="#c777d0" height="29" rx="14.5" width="29" x="288" y="156"/><path clip-rule="evenodd" d="m302.738 164.189c-2.042 0-3.697 1.655-3.697 3.696 0 1.381.757 2.585 1.878 3.219-.831.214-1.564.595-2.156 1.178-.996.982-1.481 2.426-1.481 4.256 0 .387.314.701.701.701.388 0 .702-.314.702-.701 0-1.594.419-2.622 1.062-3.257.646-.636 1.63-.986 2.99-.986 1.361 0 2.345.35 2.991.986.643.635 1.062 1.663 1.062 3.257 0 .387.314.701.702.701.387 0 .701-.314.701-.701 0-1.83-.484-3.274-1.481-4.256-.592-.583-1.325-.964-2.156-1.178 1.121-.634 1.878-1.838 1.878-3.219 0-2.041-1.655-3.696-3.696-3.696zm-2.294 3.696c0-1.267 1.027-2.294 2.294-2.294 1.266 0 2.293 1.027 2.293 2.294s-1.027 2.294-2.293 2.294c-1.267 0-2.294-1.027-2.294-2.294z" fill="#fff" fill-rule="evenodd"/></g><g opacity=".9"><rect fill="#c777d0" height="29" rx="14.5" width="29" x="228" y="285"/><path clip-rule="evenodd" d="m242.738 293.189c-2.042 0-3.697 1.655-3.697 3.696 0 1.381.757 2.585 1.878 3.219-.831.214-1.564.595-2.156 1.178-.996.982-1.481 2.426-1.481 4.256 0 .387.314.701.701.701.388 0 .702-.314.702-.701 0-1.594.419-2.622 1.062-3.257.646-.636 1.63-.986 2.99-.986 1.361 0 2.345.35 2.991.986.643.635 1.062 1.663 1.062 3.257 0 .387.314.701.702.701.387 0 .701-.314.701-.701 0-1.83-.484-3.274-1.481-4.256-.592-.583-1.325-.964-2.156-1.178 1.121-.634 1.878-1.838 1.878-3.219 0-2.041-1.655-3.696-3.696-3.696zm-2.294 3.696c0-1.267 1.027-2.294 2.294-2.294 1.266 0 2.293 1.027 2.293 2.294s-1.027 2.294-2.293 2.294c-1.267 0-2.294-1.027-2.294-2.294z" fill="#fff" fill-rule="evenodd"/></g><g opacity=".9"><rect fill="#c777d0" height="29" rx="14.5" width="29" x="172" y="20"/><path clip-rule="evenodd" d="m186.738 28.189c-2.042 0-3.697 1.6549-3.697 3.6963 0 1.3805.757 2.5842 1.878 3.219-.831.2132-1.564.5947-2.156 1.1781-.996.9819-1.481 2.4256-1.481 4.2551 0 .3873.314.7012.701.7012.388 0 .702-.3139.702-.7012 0-1.5934.419-2.6218 1.062-3.2562.646-.6365 1.63-.9868 2.99-.9868 1.361 0 2.345.3503 2.991.9868.643.6344 1.062 1.6628 1.062 3.2562 0 .3873.314.7012.702.7012.387 0 .701-.3139.701-.7012 0-1.8295-.484-3.2732-1.481-4.2551-.592-.5834-1.325-.9649-2.156-1.1781 1.121-.6347 1.878-1.8385 1.878-3.219 0-2.0414-1.655-3.6963-3.696-3.6963zm-2.294 3.6963c0-1.2669 1.027-2.2939 2.294-2.2939 1.266 0 2.293 1.027 2.293 2.2939 0 1.2668-1.027 2.2938-2.293 2.2938-1.267 0-2.294-1.027-2.294-2.2938z" fill="#fff" fill-rule="evenodd"/></g><rect fill="#c777d0" height="29" rx="14.5" width="29" x="101" y="45"/><path clip-rule="evenodd" d="m115.738 53.189c-2.042 0-3.697 1.6549-3.697 3.6963 0 1.3805.757 2.5842 1.878 3.219-.831.2132-1.564.5947-2.156 1.1781-.996.9819-1.481 2.4256-1.481 4.2551 0 .3873.314.7012.701.7012.388 0 .702-.3139.702-.7012 0-1.5934.419-2.6218 1.062-3.2562.646-.6365 1.63-.9868 2.99-.9868 1.361 0 2.345.3503 2.991.9868.643.6344 1.062 1.6628 1.062 3.2562 0 .3873.314.7012.702.7012.387 0 .701-.3139.701-.7012 0-1.8295-.484-3.2732-1.481-4.2551-.592-.5834-1.325-.9649-2.156-1.1781 1.121-.6347 1.878-1.8385 1.878-3.219 0-2.0414-1.655-3.6963-3.696-3.6963zm-2.294 3.6963c0-1.2669 1.027-2.2939 2.294-2.2939 1.266 0 2.293 1.027 2.293 2.2939 0 1.2668-1.027 2.2938-2.293 2.2938-1.267 0-2.294-1.027-2.294-2.2938z" fill="#fff" fill-rule="evenodd"/><rect fill="#c777d0" height="29" rx="14.5" width="29" x="39" y="203"/><path clip-rule="evenodd" d="m53.7375 211.189c-2.0414 0-3.6963 1.655-3.6963 3.696 0 1.381.7568 2.585 1.8782 3.219-.8313.214-1.5646.595-2.1565 1.178-.9964.982-1.4807 2.426-1.4807 4.256 0 .387.314.701.7013.701.3872 0 .7012-.314.7012-.701 0-1.594.4189-2.622 1.0627-3.257.6458-.636 1.6297-.986 2.9901-.986s2.3443.35 2.9902.986c.6438.635 1.0627 1.663 1.0627 3.257 0 .387.3139.701.7012.701s.7012-.314.7012-.701c.0001-1.83-.4843-3.274-1.4807-4.256-.5919-.583-1.3251-.964-2.1565-1.178 1.1214-.634 1.8782-1.838 1.8782-3.219 0-2.041-1.6549-3.696-3.6963-3.696zm-2.2938 3.696c0-1.267 1.027-2.294 2.2938-2.294 1.2669 0 2.2939 1.027 2.2939 2.294s-1.027 2.294-2.2939 2.294c-1.2668 0-2.2938-1.027-2.2938-2.294z" fill="#fff" fill-rule="evenodd"/><g opacity=".45"><rect fill="#c777d0" height="23" rx="11.5" width="23" x="78"/><path clip-rule="evenodd" d="m89.6884 6.49463c-1.619 0-2.9315 1.3125-2.9315 2.93156 0 1.09491.6002 2.04961 1.4896 2.55301-.6594.1691-1.2409.4717-1.7103.9343-.7903.7788-1.1744 1.9238-1.1744 3.3748 0 .3072.249.5562.5562.5562.3071 0 .5561-.249.5561-.5562 0-1.2637.3323-2.0794.8428-2.5825.5122-.5048 1.2925-.7826 2.3715-.7826s1.8593.2778 2.3715.7826c.5106.5031.8429 1.3188.8429 2.5825-.0001.3071.2489.5561.5561.5562.3071 0 .5561-.249.5561-.5562.0001-1.451-.3841-2.596-1.1743-3.3748-.4695-.4626-1.051-.7652-1.7103-.9343.8894-.5034 1.4896-1.4581 1.4896-2.55301 0-1.61906-1.3125-2.93156-2.9316-2.93156zm-1.8192 2.93156c0-1.00476.8145-1.81927 1.8192-1.81927 1.0048 0 1.8193.81451 1.8193 1.81927 0 1.00471-.8145 1.81921-1.8193 1.81921-1.0047 0-1.8192-.8145-1.8192-1.81921z" fill="#fff" fill-rule="evenodd"/></g><g opacity=".45"><rect fill="#c777d0" height="23" rx="11.5" width="23" x="59" y="67"/><path clip-rule="evenodd" d="m70.6884 73.4946c-1.619 0-2.9315 1.3125-2.9315 2.9316 0 1.0949.6002 2.0496 1.4896 2.553-.6594.1691-1.2409.4717-1.7103.9343-.7903.7788-1.1744 1.9238-1.1744 3.3748 0 .3072.249.5562.5562.5562.3071 0 .5561-.249.5561-.5562 0-1.2637.3323-2.0794.8428-2.5825.5122-.5048 1.2925-.7826 2.3715-.7826s1.8593.2778 2.3715.7826c.5106.5031.8429 1.3188.8429 2.5825-.0001.3071.2489.5561.5561.5562.3071 0 .5561-.249.5561-.5562.0001-1.451-.3841-2.596-1.1743-3.3748-.4695-.4626-1.051-.7652-1.7103-.9343.8894-.5034 1.4896-1.4581 1.4896-2.553 0-1.6191-1.3125-2.9316-2.9316-2.9316zm-1.8192 2.9316c0-1.0048.8145-1.8193 1.8192-1.8193 1.0048 0 1.8193.8145 1.8193 1.8193 0 1.0047-.8145 1.8192-1.8193 1.8192-1.0047 0-1.8192-.8145-1.8192-1.8192z" fill="#fff" fill-rule="evenodd"/></g><g opacity=".45"><rect fill="#c777d0" height="23" rx="11.5" width="23" y="168"/><path clip-rule="evenodd" d="m11.6884 174.495c-1.619 0-2.93152 1.312-2.93152 2.931 0 1.095.60023 2.05 1.48962 2.553-.65938.169-1.2409.472-1.71033.935-.79024.778-1.17435 1.923-1.17435 3.374 0 .307.24899.556.55614.556.30716 0 .55615-.249.55615-.556 0-1.263.33225-2.079.84281-2.582.5122-.505 1.29248-.783 2.37148-.783s1.8593.278 2.3715.783c.5106.503.8429 1.319.8429 2.582-.0001.307.2489.556.5561.556.3071 0 .5561-.249.5561-.556.0001-1.451-.3841-2.596-1.1743-3.374-.4695-.463-1.051-.766-1.7103-.935.8894-.503 1.4896-1.458 1.4896-2.553 0-1.619-1.3125-2.931-2.9316-2.931zm-1.81922 2.931c0-1.005.81452-1.819 1.81922-1.819 1.0048 0 1.8193.814 1.8193 1.819s-.8145 1.819-1.8193 1.819c-1.0047 0-1.81922-.814-1.81922-1.819z" fill="#fff" fill-rule="evenodd"/></g><g opacity=".45"><rect fill="#c777d0" height="23" rx="11.5" width="23" y="233"/><path clip-rule="evenodd" d="m11.6884 239.495c-1.619 0-2.93152 1.312-2.93152 2.931 0 1.095.60023 2.05 1.48962 2.553-.65938.169-1.2409.472-1.71033.935-.79024.778-1.17435 1.923-1.17435 3.374 0 .307.24899.556.55614.556.30716 0 .55615-.249.55615-.556 0-1.263.33225-2.079.84281-2.582.5122-.505 1.29248-.783 2.37148-.783s1.8593.278 2.3715.783c.5106.503.8429 1.319.8429 2.582-.0001.307.2489.556.5561.556.3071 0 .5561-.249.5561-.556.0001-1.451-.3841-2.596-1.1743-3.374-.4695-.463-1.051-.766-1.7103-.935.8894-.503 1.4896-1.458 1.4896-2.553 0-1.619-1.3125-2.931-2.9316-2.931zm-1.81922 2.931c0-1.005.81452-1.819 1.81922-1.819 1.0048 0 1.8193.814 1.8193 1.819s-.8145 1.819-1.8193 1.819c-1.0047 0-1.81922-.814-1.81922-1.819z" fill="#fff" fill-rule="evenodd"/></g><g opacity=".45"><rect fill="#c777d0" height="23" rx="11.5" width="23" x="62" y="159"/><path clip-rule="evenodd" d="m73.6884 165.495c-1.619 0-2.9315 1.312-2.9315 2.931 0 1.095.6002 2.05 1.4896 2.553-.6594.169-1.2409.472-1.7103.935-.7903.778-1.1744 1.923-1.1744 3.374 0 .307.249.556.5562.556.3071 0 .5561-.249.5561-.556 0-1.263.3323-2.079.8428-2.582.5122-.505 1.2925-.783 2.3715-.783s1.8593.278 2.3715.783c.5106.503.8429 1.319.8429 2.582-.0001.307.2489.556.5561.556.3071 0 .5561-.249.5561-.556.0001-1.451-.3841-2.596-1.1743-3.374-.4695-.463-1.051-.766-1.7103-.935.8894-.503 1.4896-1.458 1.4896-2.553 0-1.619-1.3125-2.931-2.9316-2.931zm-1.8192 2.931c0-1.005.8145-1.819 1.8192-1.819 1.0048 0 1.8193.814 1.8193 1.819s-.8145 1.819-1.8193 1.819c-1.0047 0-1.8192-.814-1.8192-1.819z" fill="#fff" fill-rule="evenodd"/></g><rect fill="#c777d0" height="40" rx="20" width="40" x="157" y="74"/><path clip-rule="evenodd" d="m177.328 85.2949c-2.816 0-5.099 2.2826-5.099 5.0984 0 1.9041 1.044 3.5645 2.591 4.44-1.147.2941-2.158.8203-2.975 1.6249-1.374 1.3545-2.042 3.3457-2.042 5.8688 0 .535.433.968.967.968s.967-.433.967-.968c0-2.197.578-3.6159 1.466-4.491.891-.8779 2.248-1.361 4.124-1.361 1.877 0 3.234.4831 4.125 1.361.888.8751 1.466 2.294 1.466 4.491 0 .535.433.968.967.968s.967-.433.967-.968c0-2.5231-.668-4.5144-2.042-5.8688-.817-.8046-1.828-1.3308-2.975-1.6249 1.547-.8755 2.591-2.5358 2.591-4.44 0-2.8158-2.283-5.0984-5.098-5.0984zm-3.164 5.0984c0-1.7474 1.416-3.164 3.164-3.164 1.747 0 3.163 1.4166 3.163 3.164s-1.416 3.1639-3.163 3.1639c-1.748 0-3.164-1.4165-3.164-3.1639z" fill="#fff" fill-rule="evenodd"/><g filter="url(#a)"><path d="m210.543 172.203-24-54" stroke="#41dff5"/></g><g filter="url(#b)"><path d="m288.195 180.46-26 11" stroke="#41dff5"/></g><g filter="url(#c)"><path d="m290.79 239.454-26-12" stroke="#41dff5"/></g><g filter="url(#d)"><path d="m238.502 276.047-3-32" stroke="#41dff5"/></g><g filter="url(#e)"><path d="m197.135 218.481-50 14" stroke="#41dff5"/></g><g filter="url(#f)"><path d="m85.8787 228.485-16-4" stroke="#41dff5"/></g><g filter="url(#g)"><path d="m42.7428 203.429-20-12" stroke="#41dff5"/></g><g filter="url(#h)"><path d="m68.4743 185.158-6 18" stroke="#41dff5"/></g><g filter="url(#i)"><path d="m100.149 68.4772-15.9999 5" stroke="#41dff5"/></g><g filter="url(#j)"><path d="m106.563 42.2428-10.0001-18" stroke="#41dff5"/></g><g filter="url(#k)"><path d="m180.504 68.938 2-16" stroke="#41dff5"/></g><g filter="url(#l)"><path d="m156.776 81.4472-26-13" stroke="#41dff5"/></g><g filter="url(#m)"><path d="m39.323 227.382-13 11" stroke="#41dff5"/></g></svg>