<svg fill="none" height="88" viewBox="0 0 742 88" width="742" xmlns="http://www.w3.org/2000/svg"><path d="m.85 13.7v-13.6500028h64.05v13.6500028h-25.05v73.95h-13.8v-73.95zm107.986 33c-2.1-.9-4.15-1.35-6.15-1.35-4.0001 0-7.5001 1.5-10.5001 4.5-3 2.9-4.5 6.35-4.5 10.35 0 1.6.3 3.3.9 5.1 2.6 6.7 7.25 10.05 13.9501 10.05 4.1 0 7.55-1.25 10.35-3.75 2.8-2.6 4.4-5.95 4.8-10.05v-1.2c0-6.4-2.95-10.95-8.85-13.65zm-12.0001-12.6c2.5-.5 4.6001-.75 6.3001-.75 3.7 0 7.55 1 11.55 3 4.7 2.2 8.35 5.5 10.95 9.9 2.7 4.3 4.05 8.95 4.05 13.95 0 7.3-2.5 13.5-7.5 18.6-5.2 5.6-11.65 8.4-19.35 8.4-7.4001 0-13.7501-2.65-19.0501-7.95-5.2-5.2-7.8-11.6-7.8-19.2 0-6.3 1.95-11.85 5.85-16.65 3.9-4.9 8.9-8 15-9.3zm81.2601-20.4v-13.6500028h64.05v13.6500028h-25.05v73.95h-13.8v-73.95zm74.836 73.95v-73.35h11.4v13.2c0 8.8.1 13.2.3 13.2s1.4-.65 3.6-1.95c5.2-3.1 10.8-4.65 16.8-4.65 7.1 0 13.35 2 18.75 6 5.5 4 9.4 9.45 11.7 16.35.7 1.9 1.15 7.65 1.35 17.25l.3 13.95h-11.4l-.3-12.75c-.2-8.8-.7-14.15-1.5-16.05-1.5-3.9-4.05-7.05-7.65-9.45-3.6-2.5-7.4-3.75-11.4-3.75-.8 0-1.9.1-3.3.3-7.1 1.4-12.2 5.35-15.3 11.85-.8 1.6-1.3 3.2-1.5 4.8-.1 1.5-.2 5.4-.3 11.7l-.15 13.35zm109.511-41.1c-2.1-1.1-4.65-1.65-7.65-1.65-5.3 0-9.3 1.5-12 4.5-2.1 2.1-3.15 3.75-3.15 4.95 0 .4 4.95.6 14.85.6 10 0 15-.2 15-.6 0-1-1.05-2.65-3.15-4.95-1.2-1.2-2.5-2.15-3.9-2.85zm-21.6-10.05c4-2 8.4-3 13.2-3h1.95c8.1.4 14.45 3.15 19.05 8.25 4.7 5.1 7.05 11.95 7.05 20.55v4.2h-21c-13.9 0-20.85.1-20.85.3s.25.8.75 1.8c1.5 2.6 3.9 4.55 7.2 5.85 1.8.7 3.9 1.05 6.3 1.05 3.3 0 6.2-.7 8.7-2.1 1.5-.8 2.65-1.3 3.45-1.5.9-.2 2.9-.3 6-.3 4.4 0 6.6.15 6.6.45 0 .5-.8 1.8-2.4 3.9-1.5 2-2.9 3.55-4.2 4.65-4.3 3.9-9.65 6-16.05 6.3h-1.8c-8.1 0-14.65-2.45-19.65-7.35-5-5-7.5-11.6-7.5-19.8 0-11.2 4.4-18.95 13.2-23.25zm116.046-36.150007c.6-.099998 1.95-.149998 4.05-.149998 4.6 0 8.05.25 10.35.75 4.3.999995 8.4 2.999995 12.3 6.000005 4 2.99999 7 6.35 9 10.05.1.3.2.6.3.9.2.2.35.45.45.75.1.2.2.45.3.75.1.2.2.4.3.6.1.1.15.25.15.45.1.1.15.2.15.3l.15.15c0 .2-2.6.3-7.8.3s-8.2-.4-9-1.2c-3.8-4.1-8.85-6.15-15.15-6.15-6.8 0-11.35 2.25-13.65 6.75-.8 1.8-1.2 3.3-1.2 4.5 0 3.6 2.65 6.75 7.95 9.45 2 1.1 7.25 2.9 15.75 5.4 7.1 2 12.75 5.1 16.95 9.3 2.7 2.7 4.35 5.2 4.95 7.5.6 2.1.9 4.2.9 6.3 0 3.8-.8 7.1-2.4 9.9-2.5 4.4-6.3 7.9-11.4 10.5s-10.6 3.9-16.5 3.9h-2.25c-4.8-.3-9.35-1.45-13.65-3.45-2-1-4.35-2.7-7.05-5.1-2.6-2.5-4.55-4.75-5.85-6.75-.8-1.3-1.8-3.25-3-5.85-1.1-2.6-1.65-4.25-1.65-4.95 0-.4 2.4-.6 7.2-.6h7.05l1.2 2.4c1.8 3.4 4.95 6.3 9.45 8.7 2.4 1.2 5.05 1.8 7.95 1.8 4.6 0 8.6-1.1 12-3.3s5.1-4.65 5.1-7.35c0-1.1-.35-2.15-1.05-3.15s-2.25-2.1-4.65-3.3c-2.3-1.3-4.65-2.35-7.05-3.15-.6-.2-2.05-.65-4.35-1.35s-4-1.2-5.1-1.5c-16.2-4.9-24.3-13.15-24.3-24.75 0-2 .3-4.15.9-6.45 1.1-4.7 3.2-8.45 6.3-11.25001 3.9-3.7 9.2-6.25 15.9-7.649997zm67.05 33.900007c2-.6 4.1-.9 6.3-.9 5.7 0 10.45 1.35 14.25 4.05l1.65 1.2c1 .8 1.75 1.45 2.25 1.95l2.1 2.1 2.25-2.1c4.4-4.3 9.7-6.65 15.9-7.05h1.05c.5-.1.9-.15 1.2-.15 5.9 0 11.25 2 16.05 6s7.75 9 8.85 15c.4 2.2.6 8.15.6 17.85v14.85h-12v-31.2l-1.5-3c-2.5-5.1-6.6-7.65-12.3-7.65-4.2 0-7.7 1.55-10.5 4.65-1.7 1.9-2.75 4.1-3.15 6.6-.4 2.4-.6 7.75-.6 16.05v14.55h-11.55v-14.85c0-10.1-.35-16.1-1.05-18-1.1-2.9-2.85-5.15-5.25-6.75s-5-2.4-7.8-2.4c-3.8 0-7.1 1.4-9.9 4.2-1.9 1.9-3.05 3.9-3.45 6s-.6 7.5-.6 16.2v15.6h-12v-53.25h12v3.45l1.95-1.05c1.2-.6 2.95-1.25 5.25-1.95zm115.61 12.6c-1.5-.7-3.35-1.05-5.55-1.05-2.4 0-4.6.45-6.6 1.35-2.8 1.3-5 3.2-6.6 5.7-1.5 2.5-2.25 5.15-2.25 7.95 0 4.1 1.6 7.75 4.8 10.95 1.1 1.1 2.7 2.15 4.8 3.15 2.1.9 3.85 1.35 5.25 1.35 3.7 0 7.15-1.5 10.35-4.5 3.3-3.1 4.95-6.8 4.95-11.1 0-2.9-.8-5.6-2.4-8.1s-3.85-4.4-6.75-5.7zm-10.2-12.6c1.6-.2 2.9-.3 3.9-.3 4.6 0 8.8.95 12.6 2.85 2 1.1 3.1 1.65 3.3 1.65s.3-.8.3-2.4v-2.25h11.4v53.85h-11.4v-4.65l-3.3 1.65c-4 2-8.2 3-12.6 3-4.9 0-9.2-1.05-12.9-3.15-4.3-2.4-7.7-5.7-10.2-9.9-2.5-4.3-3.75-8.85-3.75-13.65 0-1.9.1-3.3.3-4.2 1-5.8 3.55-10.75 7.65-14.85s9-6.65 14.7-7.65zm41.503 52.8v-54.45h11.4v7.5l1.65-1.05c4.7-3.3 10.15-5.35 16.35-6.15l3.3-.3v5.7c0 2.7-.1 4.35-.3 4.95-.1.5-.45.85-1.05 1.05-4.5 1-7.9 2.25-10.2 3.75-2.3 1.7-4.05 3.35-5.25 4.95-1.9 2.5-3.05 4.8-3.45 6.9s-.7 6.8-.9 14.1l-.15 13.05zm51.016-58.95v-14.4h11.4v14.4h7.95v11.4h-7.95v47.55h-11.4v-47.55h-7.5v-11.4z" fill="#fff"/></svg>