<svg fill="none" height="45" viewBox="0 0 45 45" width="45" xmlns="http://www.w3.org/2000/svg" xmlns:xlink="http://www.w3.org/1999/xlink"><clipPath id="a"><rect height="45" rx="22.5" width="45"/></clipPath><clipPath id="b"><path d="m-8 0h61v45.75h-61z"/></clipPath><g clip-path="url(#a)"><rect fill="#fff" height="45" rx="22.5" width="45"/><g clip-path="url(#b)"><path d="m-8 0h61v15.25h-61z" fill="#ff8718"/><path d="m-8 15.25h61v15.25h-61z" fill="#f5f8fb"/><path d="m-8 30.5h61v15.25h-61z" fill="#2b9f5a"/><path d="m26.3125 22.875c0 2.1056-1.7069 3.8125-3.8125 3.8125s-3.8125-1.7069-3.8125-3.8125 1.7069-3.8125 3.8125-3.8125 3.8125 1.7069 3.8125 3.8125z" fill="#f5f8fb"/><path clip-rule="evenodd" d="m22.5 20.9687c-1.0528 0-1.9063.8535-1.9063 1.9063s.8535 1.9062 1.9063 1.9062 1.9062-.8534 1.9062-1.9062-.8534-1.9063-1.9062-1.9063zm-5.7188 1.9063c0-3.1584 2.5604-5.7188 5.7188-5.7188s5.7187 2.5604 5.7187 5.7188-2.5603 5.7187-5.7187 5.7187-5.7188-2.5603-5.7188-5.7187z" fill="#41479b" fill-rule="evenodd"/></g></g></svg>