<svg fill="none" height="232" viewBox="0 0 231 232" width="231" xmlns="http://www.w3.org/2000/svg" xmlns:xlink="http://www.w3.org/1999/xlink"><filter id="a" color-interpolation-filters="sRGB" filterUnits="userSpaceOnUse" height="77.6968" width="77.6968" x="143.609" y="135.052"><feFlood flood-opacity="0" result="BackgroundImageFix"/><feBlend in="SourceGraphic" in2="BackgroundImageFix" mode="normal" result="shape"/><feGaussianBlur result="effect1_foregroundBlur_12_115" stdDeviation="11"/></filter><filter id="b" color-interpolation-filters="sRGB" filterUnits="userSpaceOnUse" height="69.1147" width="69.1147" x="17.0547" y="20.0621"><feFlood flood-opacity="0" result="BackgroundImageFix"/><feBlend in="SourceGraphic" in2="BackgroundImageFix" mode="normal" result="shape"/><feGaussianBlur result="effect1_foregroundBlur_12_115" stdDeviation="9.5"/></filter><radialGradient id="c" cx="0" cy="0" gradientTransform="matrix(-206.92215359 -101.82280825 144.15147568 -292.94157472 229.057 137.347)" gradientUnits="userSpaceOnUse" r="1"><stop offset=".432292" stop-color="#e192e0"/><stop offset="1" stop-color="#32cbe1"/></radialGradient><linearGradient id="d" gradientUnits="userSpaceOnUse" x1="245.887" x2="172.516" y1="141.451" y2="158.854"><stop offset="0" stop-color="#fff" stop-opacity=".64"/><stop offset="1" stop-color="#d080d6"/></linearGradient><linearGradient id="e" gradientUnits="userSpaceOnUse" x1="79.0663" x2="11.3181" y1="24.6571" y2="40.7265"><stop offset="0" stop-color="#3cbbd0"/><stop offset="1" stop-color="#fff"/></linearGradient><linearGradient id="f" gradientUnits="userSpaceOnUse" x1="249.372" x2="176.53" y1="157.683" y2="183.783"><stop offset="0" stop-color="#e192e0"/><stop offset="1" stop-color="#9f4cb8"/></linearGradient><linearGradient id="g" gradientUnits="userSpaceOnUse" x1="72.6657" x2="2.81508" y1="37.9611" y2="54.5292"><stop offset="0" stop-color="#3cbbd0"/><stop offset="1" stop-color="#28dbf1"/></linearGradient><path d="m24.3467 139.557c-13.4464-50.1826 16.3341-101.7639 66.5166-115.2103 50.1827-13.4463 101.7637 16.3342 115.2097 66.5166 13.447 50.1827-16.334 101.7637-66.516 115.2097-50.1827 13.447-101.764-16.334-115.2103-66.516zm170.4803-45.6802c-11.782-43.9712-56.979-70.0656-100.9503-58.2836-43.9711 11.7821-70.0656 56.979-58.2835 100.9498 11.782 43.972 56.9789 70.066 100.9498 58.284 43.971-11.782 70.066-56.979 58.284-100.9502z" fill="#c4c4c4"/><path d="m24.3467 139.557c-13.4464-50.1826 16.3341-101.7639 66.5166-115.2103 50.1827-13.4463 101.7637 16.3342 115.2097 66.5166 13.447 50.1827-16.334 101.7637-66.516 115.2097-50.1827 13.447-101.764-16.334-115.2103-66.516zm170.4803-45.6802c-11.782-43.9712-56.979-70.0656-100.9503-58.2836-43.9711 11.7821-70.0656 56.979-58.2835 100.9498 11.782 43.972 56.9789 70.066 100.9498 58.284 43.971-11.782 70.066-56.979 58.284-100.9502z" fill="url(#c)"/><g filter="url(#a)"><path d="m199.306 157.052h33.6968v33.6968h-33.6968z" fill="#c4c4c4" transform="matrix(0 1 -1 0 356.358 -42.254)"/><path d="m199.306 157.052h33.6968v33.6968h-33.6968z" fill="url(#d)" transform="matrix(0 1 -1 0 356.358 -42.254)"/></g><g filter="url(#b)"><path d="m36.0547 39.0621h31.1148v31.1148h-31.1148z" fill="url(#e)"/></g><path d="m205.579 169.123h22.7464v22.7464h-22.7464z" fill="#c4c4c4" transform="matrix(-.8660254 .5 -.5 -.8660254 468.177136 212.798314)"/><path d="m205.579 169.123h22.7464v22.7464h-22.7464z" fill="url(#f)" transform="matrix(-.8660254 .5 -.5 -.8660254 468.177136 212.798314)"/><path d="m28.3193 52.8131h32.0804v32.0804h-32.0804z" fill="url(#g)"/></svg>