<svg fill="none" height="48" viewBox="0 0 48 48" width="48" xmlns="http://www.w3.org/2000/svg" xmlns:xlink="http://www.w3.org/1999/xlink"><linearGradient id="a" gradientUnits="userSpaceOnUse" x1="-97.5" x2="6.8155" y1="270.14" y2="290.575"><stop offset=".557292" stop-color="#41dff5"/><stop offset="1" stop-color="#1fb1c6"/></linearGradient><linearGradient id="b" gradientUnits="userSpaceOnUse" x1="20.9955" x2="23.5599" y1="25.4742" y2="33.7692"><stop offset="0" stop-color="#eff7fc"/><stop offset="1" stop-color="#fff"/></linearGradient><path d="m24 48c13.2548 0 24-10.7452 24-24s-10.7452-24-24-24-24 10.7452-24 24 10.7452 24 24 24z" fill="url(#a)"/><path d="m19.5999 35c-.7775 0-.6454-.2936-.9136-1.0339l-2.2864-7.5249 17.6-10.4412" fill="#c8daea"/><path d="m19.6001 34.9999c.6 0 .8651-.2744 1.2-.6l3.2-3.1116-3.9916-2.407" fill="#5e92ad"/><path d="m20.0079 28.882 9.672 7.1458c1.1037.609 1.9003.2937 2.1752-1.0247l3.937-18.5526c.4031-1.6161-.616-2.349-1.6718-1.8697l-23.118 8.9142c-1.57806.633-1.56886 1.5134-.2877 1.9056l5.9326 1.8517 13.7346-8.665c.6484-.3932 1.2435-.1818.7551.2517" fill="url(#b)"/></svg>