<svg fill="none" height="48" viewBox="0 0 48 48" width="48" xmlns="http://www.w3.org/2000/svg" xmlns:xlink="http://www.w3.org/1999/xlink"><linearGradient id="a" gradientUnits="userSpaceOnUse" x1="-97.5" x2="6.8155" y1="270.14" y2="290.575"><stop offset=".557292" stop-color="#41dff5"/><stop offset="1" stop-color="#1fb1c6"/></linearGradient><circle cx="24" cy="24" fill="#55ace3" r="24"/><circle cx="24" cy="24" fill="url(#a)" r="24"/><path d="m36.7199 17.8801c-.84.36-1.7999.6-2.7599.72.96-.6 1.7999-1.56 2.1599-2.64-.96.6-1.9199.96-3.1199 1.2-.84-.96-2.1601-1.56-3.4801-1.56-2.64 0-4.8 2.16-4.8 4.8 0 .36 0 .72.12 1.08-3.96-.24-7.56-2.16-9.96-5.04-.36.72-.6 1.56-.6 2.4 0 1.68.84 3.12 2.16 3.96-.84 0-1.56-.24-2.16-.6 0 2.28 1.68 4.32 3.84 4.68-.36.12-.8399.12-1.3199.12-.36 0-.6001 0-.9601-.12.6 1.92 2.4001 3.36 4.5601 3.36-1.68 1.32-3.72 2.04-6 2.04-.36 0-.72 0-1.2-.12 2.16 1.32 4.6799 2.16 7.4399 2.16 8.88 0 13.68-7.32 13.68-13.68v-.6c.96-.36 1.8-1.2 2.4-2.16z" fill="#fff"/></svg>